<svg viewBox="0 0 1971 740" fill="none" xmlns="http://www.w3.org/2000/svg">
<path d="M2.7347 7.83873C-4.36201 44.2561 2.57321 85.8417 22.6468 116.993C73.0141 195.175 184.231 190.473 264.174 176.092C432.642 145.809 592.975 79.4236 762.225 50.3322C918.506 23.4648 1099.56 19.3178 1219.43 140.708C1328.61 251.272 1372.72 426.011 1292.76 565.141C1247.75 643.412 1129.89 753.411 1029.53 709.841C950.097 675.348 1010.22 570.671 1045.48 526.296C1118.32 434.638 1229.4 370.759 1343.02 345.914C1500.55 311.521 1678.3 353.281 1805.67 451.815C1859.52 493.519 1913.12 549.712 1940.39 613.442C1945.84 626.124 1975.97 625.306 1969.08 609.246C1886.97 417.298 1649.15 313.527 1452.85 311.443C1324.08 310.05 1195.98 355.949 1095.57 436.297C1034.13 485.473 950.901 569.975 960.806 657.106C970.578 743.21 1077.94 750.202 1142.59 728.826C1256.85 691.061 1343.85 579.093 1361.53 461.597C1384.38 309.695 1296.76 146.074 1165.79 69.7431C1023.01 -13.4869 844.236 7.23106 689.866 39.9937C591.759 60.8285 495.415 89.0966 398.988 116.453C311.558 141.229 209.189 179.543 117.356 155.567C54.3328 139.138 20.4876 78.5364 32.7782 15.4584C35.6218 0.872161 5.54713 -6.58418 2.7347 7.83873Z" fill="url(#paint0_linear_2246_769)"/>
<defs>
<linearGradient id="paint0_linear_2246_769" x1="165.765" y1="96.9483" x2="2054.86" y2="562.112" gradientUnits="userSpaceOnUse">
<stop stop-color="white" stop-opacity="0"/>
<stop offset="0.53491" stop-color="#F37362"/>
<stop offset="0.905" stop-color="white" stop-opacity="0"/>
</linearGradient>
</defs>
</svg>
