<svg viewBox="0 0 1309 607" fill="none" xmlns="http://www.w3.org/2000/svg">
<path d="M12.2362 17.7938C79.1136 13.8933 146.41 12.3277 213.369 14.4126C250.555 15.5716 293.661 14.66 329.024 27.9615C362.049 40.3836 310.018 74.0297 297.227 83.1643C275.961 98.3543 150.375 171.535 226.357 196.565C262.331 208.415 308.695 194.562 344.356 187.842C396.914 177.938 451.546 164.72 505.381 168.482C522.476 169.676 567.477 174.528 563.323 199.29C560.319 217.192 537.151 231.74 523.674 241.209C507.356 252.675 444.164 276.992 461.771 304.7C470.015 317.676 489.189 321.719 503.163 323.286C535.976 326.964 567.219 317.931 599.274 312.752C618.021 309.724 770.602 296.957 752.626 340.014C743.963 360.759 715.016 374.701 696.88 385.58C682.686 394.096 658.529 404.287 651.478 420.686C638.412 451.064 688.269 456.337 705.874 455.094C754.598 451.656 802.03 436.137 850.106 428.265C872.589 424.583 896.858 420.856 919.372 426.19C933.986 429.65 956.098 437.013 954.521 455.461C953.507 467.314 942.676 478.043 934.251 485.23C912.291 503.963 885.455 526.641 885.968 558.671C886.589 597.538 934.947 605.935 964.939 606.295C1022.53 606.985 1081.11 598.516 1138.08 591.108C1186.12 584.863 1234.04 577.658 1281.83 569.706C1289.92 568.36 1298.01 567.002 1306.08 565.578C1314.16 564.155 1301.49 552.569 1295.52 553.621C1209.77 568.743 1123.26 581.435 1036.55 589.443C1005.65 592.296 892.592 613.303 902.618 556.529C905.364 540.975 915.304 526.215 925.802 514.759C938.259 501.168 955.972 492.688 965.281 476.198C986.93 437.843 933.438 415.756 903.702 412.301C857.612 406.944 808.843 422.048 764.219 431.552C740.848 436.529 716.934 442.235 692.972 443.195C686.779 443.444 675.355 444.787 669.968 440.908C659.547 433.403 670.936 422.943 677.419 417.576C695.285 402.782 717.275 393.234 736.275 379.997C748.995 371.135 770.751 356.085 770.713 338.377C770.634 303.385 706.274 298.005 683.105 296.313C652.779 294.097 621.987 295.68 591.944 300.274C558.391 305.406 522.504 318.202 488.394 309.748C454.927 301.452 493.316 279.677 506.309 271.778C524.31 260.834 542.633 249.612 558.283 235.398C583.038 212.91 587.192 187.423 554.44 170.533C513.806 149.576 464.011 154.647 420.42 160.699C369.631 167.752 319.713 181.007 268.709 186.454C257.733 187.626 226.07 193.139 218.807 181.161C212.129 170.144 228.914 154.961 235.71 148.695C263.445 123.129 297.371 105.157 326.899 81.854C342.096 69.8635 369.077 48.5959 349.459 28.8604C330.464 9.75363 293.111 8.40346 268.259 5.92332C187.18 -2.17163 104.523 0.770468 23.2551 4.62021C17.183 4.90737 11.1102 5.20444 5.04122 5.55853C-5.13968 6.15257 6.00947 18.1568 12.2362 17.7938Z" fill="url(#paint0_linear_2246_772)"/>
<defs>
<linearGradient id="paint0_linear_2246_772" x1="154.403" y1="-9.28756" x2="1308.91" y2="655.956" gradientUnits="userSpaceOnUse">
<stop stop-color="white" stop-opacity="0"/>
<stop offset="0.479722" stop-color="#F37362"/>
<stop offset="0.905" stop-color="white" stop-opacity="0"/>
</linearGradient>
</defs>
</svg>
